<svg display="none"
	xmlns="http://www.w3.org/2000/svg">

	<symbol id="menu" viewBox="0 0 384.97 384.97">
		<g>
			<path d="M12.03,120.303h360.909c6.641,0,12.03-5.39,12.03-12.03c0-6.641-5.39-12.03-12.03-12.03H12.03
			c-6.641,0-12.03,5.39-12.03,12.03C0,114.913,5.39,120.303,12.03,120.303z"/>
			<path d="M372.939,180.455H12.03c-6.641,0-12.03,5.39-12.03,12.03s5.39,12.03,12.03,12.03h360.909c6.641,0,12.03-5.39,12.03-12.03
			S379.58,180.455,372.939,180.455z"/>
			<path d="M372.939,264.667H132.333c-6.641,0-12.03,5.39-12.03,12.03c0,6.641,5.39,12.03,12.03,12.03h240.606
			c6.641,0,12.03-5.39,12.03-12.03C384.97,270.056,379.58,264.667,372.939,264.667z"/>
		</g>
	</symbol>

	<symbol id="arrow-up" viewBox="0 0 284.929 284.929">
		<g>
			<path d="M282.082,195.285L149.028,62.24c-1.901-1.903-4.088-2.856-6.562-2.856s-4.665,0.953-6.567,2.856L2.856,195.285
				C0.95,197.191,0,199.378,0,201.853c0,2.474,0.953,4.664,2.856,6.566l14.272,14.271c1.903,1.903,4.093,2.854,6.567,2.854
				c2.474,0,4.664-0.951,6.567-2.854l112.204-112.202l112.208,112.209c1.902,1.903,4.093,2.848,6.563,2.848
				c2.478,0,4.668-0.951,6.57-2.848l14.274-14.277c1.902-1.902,2.847-4.093,2.847-6.566
				C284.929,199.378,283.984,197.188,282.082,195.285z"/>
		</g>
	</symbol>

	<symbol id="search" viewBox="0 0 56.966 56.966">
		<g>
			<path d="M55.146,51.887L41.588,37.786c3.486-4.144,5.396-9.358,5.396-14.786c0-12.682-10.318-23-23-23s-23,10.318-23,23
			s10.318,23,23,23c4.761,0,9.298-1.436,13.177-4.162l13.661,14.208c0.571,0.593,1.339,0.92,2.162,0.92
			c0.779,0,1.518-0.297,2.079-0.837C56.255,54.982,56.293,53.08,55.146,51.887z M23.984,6c9.374,0,17,7.626,17,17s-7.626,17-17,17
			s-17-7.626-17-17S14.61,6,23.984,6z"/>
		</g>
	</symbol>

	<symbol id="heart" viewBox="0 0 477.534 477.534">
		<g>
			<path d="M438.482,58.61c-24.7-26.549-59.311-41.655-95.573-41.711c-36.291,0.042-70.938,15.14-95.676,41.694l-8.431,8.909
			l-8.431-8.909C181.284,5.762,98.662,2.728,45.832,51.815c-2.341,2.176-4.602,4.436-6.778,6.778
			c-52.072,56.166-52.072,142.968,0,199.134l187.358,197.581c6.482,6.843,17.284,7.136,24.127,0.654
			c0.224-0.212,0.442-0.43,0.654-0.654l187.29-197.581C490.551,201.567,490.551,114.77,438.482,58.61z M413.787,234.226h-0.017
			L238.802,418.768L63.818,234.226c-39.78-42.916-39.78-109.233,0-152.149c36.125-39.154,97.152-41.609,136.306-5.484
			c1.901,1.754,3.73,3.583,5.484,5.484l20.804,21.948c6.856,6.812,17.925,6.812,24.781,0l20.804-21.931
			c36.125-39.154,97.152-41.609,136.306-5.484c1.901,1.754,3.73,3.583,5.484,5.484C453.913,125.078,454.207,191.516,413.787,234.226
			z"/>
		</g>
	</symbol>

	<symbol id="heart-full" viewBox="0 0 492.719 492.719">
		<g>
			<path d="M492.719,166.008c0-73.486-59.573-133.056-133.059-133.056c-47.985,0-89.891,25.484-113.302,63.569
			c-23.408-38.085-65.332-63.569-113.316-63.569C59.556,32.952,0,92.522,0,166.008c0,40.009,17.729,75.803,45.671,100.178
			l188.545,188.553c3.22,3.22,7.587,5.029,12.142,5.029c4.555,0,8.922-1.809,12.142-5.029l188.545-188.553
			C474.988,241.811,492.719,206.017,492.719,166.008z"/>
		</g>
	</symbol>

	<symbol id="mail" viewBox="0 0 56.966 56.966">
		<g>
			<path d="M55.146,51.887L41.588,37.786c3.486-4.144,5.396-9.358,5.396-14.786c0-12.682-10.318-23-23-23s-23,10.318-23,23
			s10.318,23,23,23c4.761,0,9.298-1.436,13.177-4.162l13.661,14.208c0.571,0.593,1.339,0.92,2.162,0.92
			c0.779,0,1.518-0.297,2.079-0.837C56.255,54.982,56.293,53.08,55.146,51.887z M23.984,6c9.374,0,17,7.626,17,17s-7.626,17-17,17
			s-17-7.626-17-17S14.61,6,23.984,6z"/>
		</g>
	</symbol>

	<symbol id="close" viewBox="0 0 329.26933 329">
		<g>
			<path d="m194.800781 164.769531 128.210938-128.214843c8.34375-8.339844 8.34375-21.824219 0-30.164063-8.339844-8.339844-21.824219-8.339844-30.164063 0l-128.214844 128.214844-128.210937-128.214844c-8.34375-8.339844-21.824219-8.339844-30.164063 0-8.34375 8.339844-8.34375 21.824219 0 30.164063l128.210938 128.214843-128.210938 128.214844c-8.34375 8.339844-8.34375 21.824219 0 30.164063 4.15625 4.160156 9.621094 6.25 15.082032 6.25 5.460937 0 10.921875-2.089844 15.082031-6.25l128.210937-128.214844 128.214844 128.214844c4.160156 4.160156 9.621094 6.25 15.082032 6.25 5.460937 0 10.921874-2.089844 15.082031-6.25 8.34375-8.339844 8.34375-21.824219 0-30.164063zm0 0" />
		</g>
	</symbol>

	<symbol id="book" viewBox="0 0 24 24">
		<g>
			<path d="m21.25 24h-17.5c-1.517 0-2.75-1.233-2.75-2.75v-18.5c0-1.517 1.233-2.75 2.75-2.75h15.5c.414 0 .75.336.75.75v3.25h1.25c.414 0 .75.336.75.75v18.5c0 .414-.336.75-.75.75zm-18.75-18.801v16.051c0 .689.561 1.25 1.25 1.25h16.75v-17h-16.75c-.45 0-.875-.108-1.25-.301zm1.25-3.699c-.689 0-1.25.561-1.25 1.25s.561 1.25 1.25 1.25h14.75v-2.5z"/>
			<path d="m12.25 19c-.137 0-.272-.037-.394-.111l-2.856-1.758-2.856 1.758c-.232.143-.521.148-.76.016-.238-.133-.384-.384-.384-.655v-13.5h1.5v12.158l2.106-1.296c.242-.148.545-.148.787 0l2.106 1.296v-12.158h1.501v13.5c0 .271-.146.522-.384.655-.114.063-.24.095-.366.095z"/>
		</g>
	</symbol>

	<!-- <symbol id="book" viewBox="0 -10 511.98685 511">
		<g>
        <path d="m114.59375 491.140625c-5.609375 0-11.179688-1.75-15.933594-5.1875-8.855468-6.417969-12.992187-17.449219-10.582031-28.09375l32.9375-145.089844-111.703125-97.960937c-8.210938-7.167969-11.347656-18.519532-7.976562-28.90625 3.371093-10.367188 12.542968-17.707032 23.402343-18.710938l147.796875-13.417968 58.433594-136.746094c4.308594-10.046875 14.121094-16.535156 25.023438-16.535156 10.902343 0 20.714843 6.488281 25.023437 16.511718l58.433594 136.769532 147.773437 13.417968c10.882813.980469 20.054688 8.34375 23.425782 18.710938 3.371093 10.367187.253906 21.738281-7.957032 28.90625l-111.703125 97.941406 32.9375 145.085938c2.414063 10.667968-1.726562 21.699218-10.578125 28.097656-8.832031 6.398437-20.609375 6.890625-29.910156 1.300781l-127.445312-76.160156-127.445313 76.203125c-4.308594 2.558594-9.109375 3.863281-13.953125 3.863281zm141.398438-112.875c4.84375 0 9.640624 1.300781 13.953124 3.859375l120.277344 71.9375-31.085937-136.941406c-2.21875-9.746094 1.089843-19.921875 8.621093-26.515625l105.472657-92.5-139.542969-12.671875c-10.046875-.917969-18.6875-7.234375-22.613281-16.492188l-55.082031-129.046875-55.148438 129.066407c-3.882812 9.195312-12.523438 15.511718-22.546875 16.429687l-139.5625 12.671875 105.46875 92.5c7.554687 6.613281 10.859375 16.769531 8.621094 26.539062l-31.0625 136.9375 120.277343-71.914062c4.308594-2.558594 9.109376-3.859375 13.953126-3.859375zm-84.585938-221.847656s0 .023437-.023438.042969zm169.128906-.0625.023438.042969c0-.023438 0-.023438-.023438-.042969zm0 0"/>
		</g>
   </symbol> -->

	<symbol id="user" viewBox="0 0 512 512">
		<g>
			<path d="m437.019531 74.980469c-48.351562-48.351563-112.640625-74.980469-181.019531-74.980469-68.382812 0-132.667969 26.628906-181.019531 74.980469-48.351563 48.351562-74.980469 112.636719-74.980469 181.019531 0 68.378906 26.628906 132.667969 74.980469 181.019531 48.351562 48.351563 112.636719 74.980469 181.019531 74.980469 68.378906 0 132.667969-26.628906 181.019531-74.980469 48.351563-48.351562 74.980469-112.640625 74.980469-181.019531 0-68.382812-26.628906-132.667969-74.980469-181.019531zm-308.679687 367.40625c10.707031-61.648438 64.128906-107.121094 127.660156-107.121094 63.535156 0 116.953125 45.472656 127.660156 107.121094-36.347656 24.972656-80.324218 39.613281-127.660156 39.613281s-91.3125-14.640625-127.660156-39.613281zm46.261718-218.519531c0-44.886719 36.515626-81.398438 81.398438-81.398438s81.398438 36.515625 81.398438 81.398438c0 44.882812-36.515626 81.398437-81.398438 81.398437s-81.398438-36.515625-81.398438-81.398437zm235.042969 197.710937c-8.074219-28.699219-24.109375-54.738281-46.585937-75.078125-13.789063-12.480469-29.484375-22.328125-46.359375-29.269531 30.5-19.894531 50.703125-54.3125 50.703125-93.363281 0-61.425782-49.976563-111.398438-111.402344-111.398438s-111.398438 49.972656-111.398438 111.398438c0 39.050781 20.203126 73.46875 50.699219 93.363281-16.871093 6.941406-32.570312 16.785156-46.359375 29.265625-22.472656 20.339844-38.511718 46.378906-46.585937 75.078125-44.472657-41.300781-72.355469-100.238281-72.355469-165.574219 0-124.617188 101.382812-226 226-226s226 101.382812 226 226c0 65.339844-27.882812 124.277344-72.355469 165.578125zm0 0"/>
		</g>
	</symbol>

	<symbol id="view-list" viewBox="0 0 612 612">
		<g>
			<path d="M63.311,73.862C28.342,73.862,0,102.204,0,137.172s28.342,63.311,63.311,63.311c34.968,0,63.31-28.342,63.31-63.311
				S98.279,73.862,63.311,73.862z M63.311,242.689C28.342,242.689,0,271.032,0,306c0,34.969,28.342,63.311,63.311,63.311
				c34.968,0,63.31-28.342,63.31-63.311C126.621,271.032,98.279,242.689,63.311,242.689z M63.311,411.518
				C28.342,411.518,0,439.859,0,474.827c0,34.969,28.342,63.311,63.311,63.311c34.968,0,63.31-28.342,63.31-63.311
				C126.621,439.859,98.279,411.518,63.311,411.518z M232.138,179.379h337.655c23.319,0,42.207-18.888,42.207-42.207
				s-18.888-42.207-42.207-42.207H232.138c-23.319,0-42.207,18.888-42.207,42.207S208.819,179.379,232.138,179.379z
				 M569.793,263.793H232.138c-23.319,0-42.207,18.888-42.207,42.207s18.888,42.207,42.207,42.207h337.655
				C593.112,348.207,612,329.319,612,306S593.112,263.793,569.793,263.793z M569.793,432.621H232.138
				c-23.319,0-42.207,18.887-42.207,42.206s18.888,42.207,42.207,42.207h337.655c23.319,0,42.207-18.888,42.207-42.207
				S593.112,432.621,569.793,432.621z"/>
		</g>
	</symbol>

	<symbol id="view-grid" viewBox="0 0 276.167 276.167">
		<g>
			<path d="M33.144,2.471C15.336,2.471,0.85,16.958,0.85,34.765s14.48,32.293,32.294,32.293s32.294-14.486,32.294-32.293
				S50.951,2.471,33.144,2.471z"/>
			<path d="M137.663,2.471c-17.807,0-32.294,14.487-32.294,32.294s14.487,32.293,32.294,32.293c17.808,0,32.297-14.486,32.297-32.293
				S155.477,2.471,137.663,2.471z"/>
			<path d="M243.873,67.059c17.804,0,32.294-14.486,32.294-32.293S261.689,2.471,243.873,2.471s-32.294,14.487-32.294,32.294
				S226.068,67.059,243.873,67.059z"/>
			<path d="M32.3,170.539c17.807,0,32.297-14.483,32.297-32.293c0-17.811-14.49-32.297-32.297-32.297S0,120.436,0,138.246
				C0,156.056,14.493,170.539,32.3,170.539z"/>
			<path d="M136.819,170.539c17.804,0,32.294-14.483,32.294-32.293c0-17.811-14.478-32.297-32.294-32.297
				c-17.813,0-32.294,14.486-32.294,32.297C104.525,156.056,119.012,170.539,136.819,170.539z"/>
			<path d="M243.038,170.539c17.811,0,32.294-14.483,32.294-32.293c0-17.811-14.483-32.297-32.294-32.297
				s-32.306,14.486-32.306,32.297C210.732,156.056,225.222,170.539,243.038,170.539z"/>
			<path d="M33.039,209.108c-17.807,0-32.3,14.483-32.3,32.294c0,17.804,14.493,32.293,32.3,32.293s32.293-14.482,32.293-32.293
				S50.846,209.108,33.039,209.108z"/>
			<path d="M137.564,209.108c-17.808,0-32.3,14.483-32.3,32.294c0,17.804,14.487,32.293,32.3,32.293
				c17.804,0,32.293-14.482,32.293-32.293S155.368,209.108,137.564,209.108z"/>
			<path d="M243.771,209.108c-17.804,0-32.294,14.483-32.294,32.294c0,17.804,14.49,32.293,32.294,32.293
				c17.811,0,32.294-14.482,32.294-32.293S261.575,209.108,243.771,209.108z"/>
		</g>
	</symbol>

	<symbol id="eye" viewBox="0 0 488.85 488.85">
		<g>
			<path d="M244.425,98.725c-93.4,0-178.1,51.1-240.6,134.1c-5.1,6.8-5.1,16.3,0,23.1c62.5,83.1,147.2,134.2,240.6,134.2
			s178.1-51.1,240.6-134.1c5.1-6.8,5.1-16.3,0-23.1C422.525,149.825,337.825,98.725,244.425,98.725z M251.125,347.025
			c-62,3.9-113.2-47.2-109.3-109.3c3.2-51.2,44.7-92.7,95.9-95.9c62-3.9,113.2,47.2,109.3,109.3
			C343.725,302.225,302.225,343.725,251.125,347.025z M248.025,299.625c-33.4,2.1-61-25.4-58.8-58.8c1.7-27.6,24.1-49.9,51.7-51.7
			c33.4-2.1,61,25.4,58.8,58.8C297.925,275.625,275.525,297.925,248.025,299.625z"/>
		</g>
	</symbol>

	<symbol id="spinner" viewBox="0 0 100 100">
		<g>
			<circle cx="50" cy="50" fill="none" stroke="#1d0e0b" stroke-width="10" r="35" stroke-dasharray="164.93361431346415 56.97787143782138" transform="matrix(1,0,0,1,0,0)" style="transform:matrix(1, 0, 0, 1, 0, 0);animation-play-state:paused"></circle>
		</g>
	</symbol>

	<symbol id="delete" viewBox="0 0 512 512">
		<g>
			<polygon points="353.574,176.526 313.496,175.056 304.807,412.34 344.885,413.804 			"/>
			<rect x="235.948" y="175.791" width="40.104" height="237.285"/>
			<polygon points="207.186,412.334 198.497,175.049 158.419,176.52 167.109,413.804 			"/>
			<path d="M17.379,76.867v40.104h41.789L92.32,493.706C93.229,504.059,101.899,512,112.292,512h286.74
				c10.394,0,19.07-7.947,19.972-18.301l33.153-376.728h42.464V76.867H17.379z M380.665,471.896H130.654L99.426,116.971h312.474
				L380.665,471.896z"/>
		</g>
		<g>
			<path d="M321.504,0H190.496c-18.428,0-33.42,14.992-33.42,33.42v63.499h40.104V40.104h117.64v56.815h40.104V33.42
			C354.924,14.992,339.932,0,321.504,0z"/>
		</g>
	</symbol>

	<symbol id="bookmark" viewBox="-58 0 404 404.54235">
		<path d="m277.527344 0h-267.257813c-5.519531 0-10 4.476562-10 10v374.527344c-.007812 7.503906 4.183594 14.378906 10.855469 17.808594 6.675781 3.425781 14.707031 2.828124 20.796875-1.550782l111.976563-80.269531 111.980468 80.265625c6.09375 4.371094 14.117188 4.964844 20.789063 1.539062 6.667969-3.425781 10.863281-10.296874 10.863281-17.792968v-374.527344c0-5.523438-4.480469-10-10.003906-10zm-10 384.523438-117.796875-84.441407c-3.484375-2.496093-8.171875-2.496093-11.652344 0l-117.800781 84.445313v-364.527344h247.25zm0 0"/>
	</symbol>

	<symbol id="star" viewBox="0 -10 511.98685 511">
		<path d="m114.59375 491.140625c-5.609375 0-11.179688-1.75-15.933594-5.1875-8.855468-6.417969-12.992187-17.449219-10.582031-28.09375l32.9375-145.089844-111.703125-97.960937c-8.210938-7.167969-11.347656-18.519532-7.976562-28.90625 3.371093-10.367188 12.542968-17.707032 23.402343-18.710938l147.796875-13.417968 58.433594-136.746094c4.308594-10.046875 14.121094-16.535156 25.023438-16.535156 10.902343 0 20.714843 6.488281 25.023437 16.511718l58.433594 136.769532 147.773437 13.417968c10.882813.980469 20.054688 8.34375 23.425782 18.710938 3.371093 10.367187.253906 21.738281-7.957032 28.90625l-111.703125 97.941406 32.9375 145.085938c2.414063 10.667968-1.726562 21.699218-10.578125 28.097656-8.832031 6.398437-20.609375 6.890625-29.910156 1.300781l-127.445312-76.160156-127.445313 76.203125c-4.308594 2.558594-9.109375 3.863281-13.953125 3.863281zm141.398438-112.875c4.84375 0 9.640624 1.300781 13.953124 3.859375l120.277344 71.9375-31.085937-136.941406c-2.21875-9.746094 1.089843-19.921875 8.621093-26.515625l105.472657-92.5-139.542969-12.671875c-10.046875-.917969-18.6875-7.234375-22.613281-16.492188l-55.082031-129.046875-55.148438 129.066407c-3.882812 9.195312-12.523438 15.511718-22.546875 16.429687l-139.5625 12.671875 105.46875 92.5c7.554687 6.613281 10.859375 16.769531 8.621094 26.539062l-31.0625 136.9375 120.277343-71.914062c4.308594-2.558594 9.109376-3.859375 13.953126-3.859375zm-84.585938-221.847656s0 .023437-.023438.042969zm169.128906-.0625.023438.042969c0-.023438 0-.023438-.023438-.042969zm0 0"/>
	</symbol>

	<symbol id="heart-fill" viewBox="0 0 512 512">
		<g>
			<path d="M376,30c-27.783,0-53.255,8.804-75.707,26.168c-21.525,16.647-35.856,37.85-44.293,53.268
			c-8.437-15.419-22.768-36.621-44.293-53.268C189.255,38.804,163.783,30,136,30C58.468,30,0,93.417,0,177.514
			c0,90.854,72.943,153.015,183.369,247.118c18.752,15.981,40.007,34.095,62.099,53.414C248.38,480.596,252.12,482,256,482
			s7.62-1.404,10.532-3.953c22.094-19.322,43.348-37.435,62.111-53.425C439.057,330.529,512,268.368,512,177.514
			C512,93.417,453.532,30,376,30z"/>
		</g>
	</symbol>

	<symbol id="book-fill" viewBox="0 0 24 24">
		<g>
			<path d="m21 4h-1v-3c0-.552-.448-1-1-1h-15c-1.654 0-2.999 1.345-3 2.999v.001 18c0 1.654 1.346 3 3 3h17c.552 0 1-.448 1-1v-18c0-.552-.448-1-1-1zm-6 10.25c0 .686-.845 1.007-1.303.507l-2.197-2.397-2.197 2.397c-.458.502-1.303.178-1.303-.507v-7.25c0-.552.448-1 1-1h5c.552 0 1 .448 1 1zm3-10.25h-14c-.551 0-1-.449-1-1s.449-1 1-1h14z"/>
		</g>
	</symbol>

	<symbol id="grid-view" viewBox='0 0 276.167 276.167'>
		<g>
			<path d='M33.144,2.471C15.336,2.471,0.85,16.958,0.85,34.765s14.48,32.293,32.294,32.293s32.294-14.486,32.294-32.293
			S50.951,2.471,33.144,2.471z'
                        />
<path d='M137.663,2.471c-17.807,0-32.294,14.487-32.294,32.294s14.487,32.293,32.294,32.293c17.808,0,32.297-14.486,32.297-32.293
			S155.477,2.471,137.663,2.471z'
                        />
<path d='M243.873,67.059c17.804,0,32.294-14.486,32.294-32.293S261.689,2.471,243.873,2.471s-32.294,14.487-32.294,32.294
			S226.068,67.059,243.873,67.059z'
                        />
<path d='M32.3,170.539c17.807,0,32.297-14.483,32.297-32.293c0-17.811-14.49-32.297-32.297-32.297S0,120.436,0,138.246
			C0,156.056,14.493,170.539,32.3,170.539z'
                        />
<path d='M136.819,170.539c17.804,0,32.294-14.483,32.294-32.293c0-17.811-14.478-32.297-32.294-32.297
			c-17.813,0-32.294,14.486-32.294,32.297C104.525,156.056,119.012,170.539,136.819,170.539z'
                        />
<path d='M243.038,170.539c17.811,0,32.294-14.483,32.294-32.293c0-17.811-14.483-32.297-32.294-32.297
			s-32.306,14.486-32.306,32.297C210.732,156.056,225.222,170.539,243.038,170.539z'
                        />
<path d='M33.039,209.108c-17.807,0-32.3,14.483-32.3,32.294c0,17.804,14.493,32.293,32.3,32.293s32.293-14.482,32.293-32.293
			S50.846,209.108,33.039,209.108z'
                        />
<path d='M137.564,209.108c-17.808,0-32.3,14.483-32.3,32.294c0,17.804,14.487,32.293,32.3,32.293
			c17.804,0,32.293-14.482,32.293-32.293S155.368,209.108,137.564,209.108z'
                        />
<path d='M243.771,209.108c-17.804,0-32.294,14.483-32.294,32.294c0,17.804,14.49,32.293,32.294,32.293
			c17.811,0,32.294-14.482,32.294-32.293S261.575,209.108,243.771,209.108z'
                        />
</g>
</symbol>

<symbol id="list-view" viewBox='0 0 612 612'>
				<path d='M63.311,73.862C28.342,73.862,0,102.204,0,137.172s28.342,63.311,63.311,63.311c34.968,0,63.31-28.342,63.31-63.311
				S98.279,73.862,63.311,73.862z M63.311,242.689C28.342,242.689,0,271.032,0,306c0,34.969,28.342,63.311,63.311,63.311
				c34.968,0,63.31-28.342,63.31-63.311C126.621,271.032,98.279,242.689,63.311,242.689z M63.311,411.518
				C28.342,411.518,0,439.859,0,474.827c0,34.969,28.342,63.311,63.311,63.311c34.968,0,63.31-28.342,63.31-63.311
				C126.621,439.859,98.279,411.518,63.311,411.518z M232.138,179.379h337.655c23.319,0,42.207-18.888,42.207-42.207
				s-18.888-42.207-42.207-42.207H232.138c-23.319,0-42.207,18.888-42.207,42.207S208.819,179.379,232.138,179.379z
				 M569.793,263.793H232.138c-23.319,0-42.207,18.888-42.207,42.207s18.888,42.207,42.207,42.207h337.655
				C593.112,348.207,612,329.319,612,306S593.112,263.793,569.793,263.793z M569.793,432.621H232.138
				c-23.319,0-42.207,18.887-42.207,42.206s18.888,42.207,42.207,42.207h337.655c23.319,0,42.207-18.888,42.207-42.207
				S593.112,432.621,569.793,432.621z'/>
			</symbol>

			<svg id="eye" viewBox='0 0 488.85 488.85'>
				<path d='M244.425,98.725c-93.4,0-178.1,51.1-240.6,134.1c-5.1,6.8-5.1,16.3,0,23.1c62.5,83.1,147.2,134.2,240.6,134.2s178.1-51.1,240.6-134.1c5.1-6.8,5.1-16.3,0-23.1C422.525,149.825,337.825,98.725,244.425,98.725z M251.125,347.025c-62,3.9-113.2-47.2-109.3-109.3c3.2-51.2,44.7-92.7,95.9-95.9c62-3.9,113.2,47.2,109.3,109.3C343.725,302.225,302.225,343.725,251.125,347.025z M248.025,299.625c-33.4,2.1-61-25.4-58.8-58.8c1.7-27.6,24.1-49.9,51.7-51.7c33.4-2.1,61,25.4,58.8,58.8C297.925,275.625,275.525,297.925,248.025,299.625z' />
			</svg>

			<svg id="my-books"
				xmlns='http://www.w3.org/2000/svg'>
				<path d='m21 4h-1v-3c0-.552-.448-1-1-1h-15c-1.654 0-2.999 1.345-3 2.999v.001 18c0 1.654 1.346 3 3 3h17c.552 0 1-.448 1-1v-18c0-.552-.448-1-1-1zm-6 10.25c0 .686-.845 1.007-1.303.507l-2.197-2.397-2.197 2.397c-.458.502-1.303.178-1.303-.507v-7.25c0-.552.448-1 1-1h5c.552 0 1 .448 1 1zm3-10.25h-14c-.551 0-1-.449-1-1s.449-1 1-1h14z' />
			</svg>

			<svg id="my-books-empty" viewBox='0 0 24 24'>
				<path d='m21.25 24h-17.5c-1.517 0-2.75-1.233-2.75-2.75v-18.5c0-1.517 1.233-2.75 2.75-2.75h15.5c.414 0 .75.336.75.75v3.25h1.25c.414 0 .75.336.75.75v18.5c0 .414-.336.75-.75.75zm-18.75-18.801v16.051c0 .689.561 1.25 1.25 1.25h16.75v-17h-16.75c-.45 0-.875-.108-1.25-.301zm1.25-3.699c-.689 0-1.25.561-1.25 1.25s.561 1.25 1.25 1.25h14.75v-2.5z' />
				<path d='m12.25 19c-.137 0-.272-.037-.394-.111l-2.856-1.758-2.856 1.758c-.232.143-.521.148-.76.016-.238-.133-.384-.384-.384-.655v-13.5h1.5v12.158l2.106-1.296c.242-.148.545-.148.787 0l2.106 1.296v-12.158h1.501v13.5c0 .271-.146.522-.384.655-.114.063-.24.095-.366.095z' />
			</svg>

			<svg id="wishlist" viewBox='0 0 492.719 492.719'>
				<path d='M492.719,166.008c0-73.486-59.573-133.056-133.059-133.056c-47.985,0-89.891,25.484-113.302,63.569c-23.408-38.085-65.332-63.569-113.316-63.569C59.556,32.952,0,92.522,0,166.008c0,40.009,17.729,75.803,45.671,100.178l188.545,188.553c3.22,3.22,7.587,5.029,12.142,5.029c4.555,0,8.922-1.809,12.142-5.029l188.545-188.553C474.988,241.811,492.719,206.017,492.719,166.008z' />
			</svg>

			<svg id="wishlist-empty" viewBox='0 0 477.534 477.534'>
				<path d='M438.482,58.61c-24.7-26.549-59.311-41.655-95.573-41.711c-36.291,0.042-70.938,15.14-95.676,41.694l-8.431,8.909l-8.431-8.909C181.284,5.762,98.662,2.728,45.832,51.815c-2.341,2.176-4.602,4.436-6.778,6.778c-52.072,56.166-52.072,142.968,0,199.134l187.358,197.581c6.482,6.843,17.284,7.136,24.127,0.654c0.224-0.212,0.442-0.43,0.654-0.654l187.29-197.581C490.551,201.567,490.551,114.77,438.482,58.61z M413.787,234.226h-0.017L238.802,418.768L63.818,234.226c-39.78-42.916-39.78-109.233,0-152.149c36.125-39.154,97.152-41.609,136.306-5.484c1.901,1.754,3.73,3.583,5.484,5.484l20.804,21.948c6.856,6.812,17.925,6.812,24.781,0l20.804-21.931c36.125-39.154,97.152-41.609,136.306-5.484c1.901,1.754,3.73,3.583,5.484,5.484C453.913,125.078,454.207,191.516,413.787,234.226z' />
			</svg>

			<svg id="navbar-icon" viewBox='0 0 56.966 56.966'>
				<path d='M55.146,51.887L41.588,37.786c3.486-4.144,5.396-9.358,5.396-14.786c0-12.682-10.318-23-23-23s-23,10.318-23,23s10.318,23,23,23c4.761,0,9.298-1.436,13.177-4.162l13.661,14.208c0.571,0.593,1.339,0.92,2.162,0.92c0.779,0,1.518-0.297,2.079-0.837C56.255,54.982,56.293,53.08,55.146,51.887z M23.984,6c9.374,0,17,7.626,17,17s-7.626,17-17,17s-17-7.626-17-17S14.61,6,23.984,6z' />
			</svg>

			<svg id="user"
				xmlns='http://www.w3.org/2000/svg'>
				<path d='m437.019531 74.980469c-48.351562-48.351563-112.640625-74.980469-181.019531-74.980469-68.382812 0-132.667969 26.628906-181.019531 74.980469-48.351563 48.351562-74.980469 112.636719-74.980469 181.019531 0 68.378906 26.628906 132.667969 74.980469 181.019531 48.351562 48.351563 112.636719 74.980469 181.019531 74.980469 68.378906 0 132.667969-26.628906 181.019531-74.980469 48.351563-48.351562 74.980469-112.640625 74.980469-181.019531 0-68.382812-26.628906-132.667969-74.980469-181.019531zm-308.679687 367.40625c10.707031-61.648438 64.128906-107.121094 127.660156-107.121094 63.535156 0 116.953125 45.472656 127.660156 107.121094-36.347656 24.972656-80.324218 39.613281-127.660156 39.613281s-91.3125-14.640625-127.660156-39.613281zm46.261718-218.519531c0-44.886719 36.515626-81.398438 81.398438-81.398438s81.398438 36.515625 81.398438 81.398438c0 44.882812-36.515626 81.398437-81.398438 81.398437s-81.398438-36.515625-81.398438-81.398437zm235.042969 197.710937c-8.074219-28.699219-24.109375-54.738281-46.585937-75.078125-13.789063-12.480469-29.484375-22.328125-46.359375-29.269531 30.5-19.894531 50.703125-54.3125 50.703125-93.363281 0-61.425782-49.976563-111.398438-111.402344-111.398438s-111.398438 49.972656-111.398438 111.398438c0 39.050781 20.203126 73.46875 50.699219 93.363281-16.871093 6.941406-32.570312 16.785156-46.359375 29.265625-22.472656 20.339844-38.511718 46.378906-46.585937 75.078125-44.472657-41.300781-72.355469-100.238281-72.355469-165.574219 0-124.617188 101.382812-226 226-226s226 101.382812 226 226c0 65.339844-27.882812 124.277344-72.355469 165.578125zm0 0' />
			</svg>

		</svg>

